<svg width="57" height="57" viewBox="0 0 57 57" fill="none" xmlns="http://www.w3.org/2000/svg">
<path d="M53.4375 7.125H42.75C42.3937 6.5075 42.4056 6.57875 39.9 4.07313C39.3166 3.49031 38.5491 3.12794 37.7283 3.04781C36.9076 2.96769 36.0845 3.17477 35.3994 3.63375C35.2295 3.75659 35.0302 3.83228 34.8216 3.85314C34.6131 3.874 34.4027 3.83927 34.2119 3.7525C34.0183 3.66047 33.85 3.5226 33.7217 3.35085C33.5934 3.1791 33.5089 2.97865 33.4756 2.76688C33.3001 1.99907 32.8751 1.31106 32.2671 0.810449C31.659 0.309833 30.9022 0.024829 30.115 1.47617e-06H26.885C26.055 -0.000753789 25.2508 0.28833 24.6112 0.81734C23.9716 1.34635 23.5368 2.08208 23.3819 2.8975C23.344 3.08307 23.2623 3.25688 23.1435 3.40443C23.0248 3.55198 22.8725 3.66899 22.6993 3.7457C22.5261 3.8224 22.3371 3.85657 22.1481 3.84536C21.959 3.83415 21.7754 3.77788 21.6125 3.68125C20.9264 3.19741 20.0915 2.9714 19.2551 3.04309C18.4186 3.11479 17.6343 3.47958 17.0406 4.07313C14.7606 6.365 14.5706 6.46 14.25 7.125H3.5625C2.61767 7.125 1.71153 7.50034 1.04343 8.16843C0.375334 8.83653 0 9.74267 0 10.6875L0 41.5625C0 42.5073 0.375334 43.4135 1.04343 44.0816C1.71153 44.7497 2.61767 45.125 3.5625 45.125H22.6694C21.4819 50.5638 21.7075 49.875 21.375 49.875C20.4302 49.875 19.524 50.2503 18.8559 50.9184C18.1878 51.5865 17.8125 52.4927 17.8125 53.4375V55.8125C17.8125 56.1274 17.9376 56.4295 18.1603 56.6522C18.383 56.8749 18.6851 57 19 57H38C38.3149 57 38.617 56.8749 38.8397 56.6522C39.0624 56.4295 39.1875 56.1274 39.1875 55.8125V53.4375C39.1886 52.949 39.0892 52.4655 38.8955 52.017C38.7018 51.5686 38.4179 51.1647 38.0616 50.8306C37.7052 50.4965 37.2839 50.2392 36.8239 50.0748C36.3638 49.9105 35.8749 49.8424 35.3875 49.875L34.3306 45.125H53.4375C54.3823 45.125 55.2885 44.7497 55.9566 44.0816C56.6247 43.4135 57 42.5073 57 41.5625V10.6875C57 9.74267 56.6247 8.83653 55.9566 8.16843C55.2885 7.50034 54.3823 7.125 53.4375 7.125ZM18.7269 5.75938C18.9231 5.56073 19.183 5.43756 19.4609 5.4115C19.7389 5.38544 20.0172 5.45816 20.2469 5.61688C20.7349 5.94266 21.2958 6.14285 21.8798 6.19968C22.4638 6.2565 23.0528 6.16819 23.5945 5.94259C24.1362 5.717 24.6137 5.3611 24.9848 4.90652C25.3558 4.45194 25.6088 3.91276 25.7213 3.33688C25.7743 3.06242 25.9225 2.81549 26.1397 2.63954C26.3569 2.4636 26.6293 2.36992 26.9088 2.375H30.1387C30.4182 2.36992 30.6906 2.4636 30.9078 2.63954C31.125 2.81549 31.2732 3.06242 31.3262 3.33688C31.4427 3.91157 31.6992 4.44864 32.0729 4.90043C32.4467 5.35223 32.9262 5.70477 33.4689 5.92679C34.0117 6.14881 34.6008 6.23343 35.184 6.17316C35.7673 6.11288 36.3267 5.90956 36.8125 5.58125C37.8338 4.97563 38.2494 5.73563 40.5531 8.03938C40.7518 8.23556 40.8749 8.49547 40.901 8.77344C40.9271 9.05142 40.8543 9.32969 40.6956 9.55938C40.3698 10.0474 40.1696 10.6083 40.1128 11.1923C40.056 11.7763 40.1443 12.3653 40.3699 12.907C40.5955 13.4487 40.9514 13.9262 41.406 14.2973C41.8606 14.6683 42.3997 14.9213 42.9756 15.0338C43.2501 15.0868 43.497 15.235 43.673 15.4522C43.8489 15.6694 43.9426 15.9418 43.9375 16.2213V19.4513C43.9375 21.1969 41.4912 20.0688 40.375 22.7406C40.1473 23.2897 40.0607 23.887 40.1229 24.4781C40.1851 25.0692 40.3942 25.6354 40.7313 26.125C41.3369 27.1463 40.5769 27.5738 38.2731 29.8656C38.0769 30.0643 37.817 30.1874 37.5391 30.2135C37.2611 30.2396 36.9828 30.1668 36.7531 30.0081C36.2651 29.6823 35.7042 29.4822 35.1202 29.4253C34.5362 29.3685 33.9472 29.4568 33.4055 29.6824C32.8638 29.908 32.3863 30.2639 32.0152 30.7185C31.6442 31.1731 31.3912 31.7122 31.2787 32.2881C31.2257 32.5626 31.0775 32.8095 30.8603 32.9855C30.6431 33.1614 30.3707 33.2551 30.0912 33.25H26.885C26.6055 33.2551 26.3332 33.1614 26.116 32.9855C25.8988 32.8095 25.7506 32.5626 25.6975 32.2881C25.5828 31.7097 25.3262 31.1687 24.9509 30.7139C24.5755 30.259 24.0931 29.9044 23.547 29.6819C23.0008 29.4595 22.408 29.3761 21.8216 29.4392C21.2353 29.5024 20.6738 29.7101 20.1875 30.0438C19.1663 30.6494 18.7506 29.8894 16.4469 27.5856C16.2629 27.3933 16.1488 27.1448 16.123 26.88C16.0971 26.6151 16.161 26.3492 16.3044 26.125C16.6302 25.637 16.8304 25.0761 16.8872 24.492C16.944 23.908 16.8557 23.319 16.6301 22.7774C16.4045 22.2357 16.0486 21.7581 15.594 21.3871C15.1394 21.0161 14.6003 20.7631 14.0244 20.6506C13.7499 20.5976 13.503 20.4494 13.327 20.2322C13.1511 20.0149 13.0574 19.7426 13.0625 19.4631V16.1975C13.0625 14.4519 15.5087 15.58 16.625 12.9081C16.8569 12.3559 16.9458 11.7541 16.8836 11.1584C16.8213 10.5627 16.6098 9.99233 16.2687 9.5C15.6631 8.47875 16.4231 8.05125 18.7269 5.75938ZM2.375 10.6875C2.375 10.3726 2.50011 10.0705 2.72281 9.84781C2.94551 9.62511 3.24756 9.5 3.5625 9.5H13.775C13.8645 10.0076 14.063 10.4897 14.3569 10.9131C14.456 11.0756 14.5146 11.2594 14.5279 11.4493C14.5411 11.6391 14.5085 11.8293 14.4328 12.0039C14.3572 12.1785 14.2407 12.3324 14.0931 12.4525C13.9456 12.5727 13.7713 12.6556 13.585 12.6944C12.7595 12.8511 12.0159 13.2946 11.4857 13.9465C10.9555 14.5984 10.6728 15.4167 10.6875 16.2569V19.4869C10.6874 20.2893 10.9582 21.0683 11.4561 21.6977C11.9539 22.327 12.6497 22.7698 13.4306 22.9544C13.6507 22.9712 13.8617 23.049 14.04 23.179C14.2183 23.3091 14.3568 23.4862 14.44 23.6906C14.5268 23.8814 14.5615 24.0918 14.5406 24.3004C14.5198 24.5089 14.4441 24.7083 14.3213 24.8781C13.8623 25.5632 13.6552 26.3864 13.7353 27.2071C13.8154 28.0278 14.1778 28.7954 14.7606 29.3788L17.0406 31.6588C17.6321 32.2511 18.4134 32.6162 19.2472 32.69C20.081 32.7638 20.9142 32.5417 21.6006 32.0625C21.7631 31.9634 21.9469 31.9047 22.1368 31.8915C22.3266 31.8783 22.5168 31.9109 22.6914 31.9865C22.866 32.0622 23.0199 32.1787 23.14 32.3263C23.2602 32.4738 23.3431 32.6481 23.3819 32.8344C23.5585 33.6301 24.0025 34.3412 24.6401 34.849C25.2776 35.3569 26.07 35.6308 26.885 35.625H30.115C30.9175 35.6251 31.6964 35.3543 32.3258 34.8564C32.9551 34.3586 33.3979 33.6628 33.5825 32.8819C33.5993 32.6618 33.6771 32.4508 33.8072 32.2725C33.9372 32.0942 34.1144 31.9557 34.3187 31.8725C34.5096 31.7857 34.7199 31.751 34.9285 31.7719C35.1371 31.7927 35.3364 31.8684 35.5062 31.9913C36.1914 32.4502 37.0145 32.6573 37.8352 32.5772C38.6559 32.4971 39.4235 32.1347 40.0069 31.5519L42.2869 29.2719C42.8792 28.6804 43.2443 27.8991 43.3181 27.0653C43.392 26.2315 43.1698 25.3983 42.6906 24.7119C42.5915 24.5494 42.5329 24.3656 42.5196 24.1758C42.5064 23.9859 42.539 23.7957 42.6147 23.6211C42.6903 23.4465 42.8068 23.2926 42.9544 23.1725C43.1019 23.0523 43.2762 22.9694 43.4625 22.9306C44.2692 22.766 44.9939 22.327 45.5135 21.6883C46.0331 21.0497 46.3154 20.2508 46.3125 19.4275V16.1975C46.3126 15.395 46.0418 14.6161 45.5439 13.9867C45.0461 13.3574 44.3503 12.9146 43.5694 12.73C43.3493 12.7132 43.1383 12.6354 42.96 12.5053C42.7817 12.3753 42.6432 12.1981 42.56 11.9938C42.18 11.0794 42.9638 10.8894 43.225 9.5H53.4375C53.7524 9.5 54.0545 9.62511 54.2772 9.84781C54.4999 10.0705 54.625 10.3726 54.625 10.6875V38H2.375V10.6875ZM36.8125 53.4375V54.625H20.1875V53.4375C20.1875 53.1226 20.3126 52.8205 20.5353 52.5978C20.758 52.3751 21.0601 52.25 21.375 52.25H35.625C35.9399 52.25 36.242 52.3751 36.4647 52.5978C36.6874 52.8205 36.8125 53.1226 36.8125 53.4375ZM32.9531 49.875H24.0469L25.0919 45.125H31.9081L32.9531 49.875ZM54.625 41.5625C54.625 41.8774 54.4999 42.1795 54.2772 42.4022C54.0545 42.6249 53.7524 42.75 53.4375 42.75H3.5625C3.24756 42.75 2.94551 42.6249 2.72281 42.4022C2.50011 42.1795 2.375 41.8774 2.375 41.5625V40.375H54.625V41.5625Z" fill="#4A4B4B"/>
</svg>
