<svg width="54" height="56" viewBox="0 0 54 56" fill="none" xmlns="http://www.w3.org/2000/svg">
<path d="M53.584 25.48H28.151V33.124H46.2065C45.2912 43.792 36.4992 48.356 28.1787 48.356C17.5562 48.356 8.23729 39.9 8.23729 28C8.23729 16.52 17.1125 7.644 28.2065 7.644C36.7766 7.644 41.7966 13.16 41.7966 13.16L47.0663 7.616C47.0663 7.616 40.2989 0 27.9291 0C12.1757 0 0 13.44 0 28C0 42.14 11.4545 56 28.3451 56C43.1834 56 54 45.724 54 30.548C54 27.328 53.584 25.48 53.584 25.48Z" fill="white"/>
</svg>
