<svg width="67" height="67" viewBox="0 0 67 67" fill="none" xmlns="http://www.w3.org/2000/svg">
<path d="M6.28155 5.94641H7.28655V6.95141C7.28655 7.22905 7.39684 7.49533 7.59317 7.69166C7.7895 7.88799 8.05577 7.99828 8.33342 7.99828C8.61107 7.99828 8.87735 7.88799 9.07368 7.69166C9.27 7.49533 9.3803 7.22905 9.3803 6.95141V5.94641H10.469C10.7467 5.94641 11.013 5.83611 11.2093 5.63978C11.4056 5.44346 11.5159 5.17718 11.5159 4.89953C11.5159 4.62188 11.4056 4.35561 11.2093 4.15928C11.013 3.96295 10.7467 3.85266 10.469 3.85266H9.46405V2.84766C9.46405 2.57001 9.35375 2.30373 9.15743 2.1074C8.9611 1.91108 8.69482 1.80078 8.41717 1.80078C8.13952 1.80078 7.87325 1.91108 7.67692 2.1074C7.48059 2.30373 7.3703 2.57001 7.3703 2.84766V3.85266H6.28155C6.0039 3.85266 5.73762 3.96295 5.5413 4.15928C5.34497 4.35561 5.23467 4.62188 5.23467 4.89953C5.23467 5.17718 5.34497 5.44346 5.5413 5.63978C5.73762 5.83611 6.0039 5.94641 6.28155 5.94641ZM60.049 61.0539H59.044V60.0489C59.044 59.7713 58.9338 59.505 58.7374 59.3087C58.5411 59.1123 58.2748 59.002 57.9972 59.002C57.7195 59.002 57.4532 59.1123 57.2569 59.3087C57.0606 59.505 56.9503 59.7713 56.9503 60.0489V61.0539H55.9453C55.6676 61.0539 55.4014 61.1642 55.205 61.3605C55.0087 61.5569 54.8984 61.8231 54.8984 62.1008C54.8984 62.3784 55.0087 62.6447 55.205 62.841C55.4014 63.0374 55.6676 63.1477 55.9453 63.1477H56.9503V64.1527C56.9503 64.4303 57.0606 64.6966 57.2569 64.8929C57.4532 65.0892 57.7195 65.1995 57.9972 65.1995C58.2748 65.1995 58.5411 65.0892 58.7374 64.8929C58.9338 64.6966 59.044 64.4303 59.044 64.1527V63.1477H60.049C60.3267 63.1477 60.593 63.0374 60.7893 62.841C60.9856 62.6447 61.0959 62.3784 61.0959 62.1008C61.0959 61.8231 60.9856 61.5569 60.7893 61.3605C60.593 61.1642 60.3267 61.0539 60.049 61.0539ZM61.6403 48.952H61.2634C61.9875 48.0324 62.3853 46.8981 62.394 45.7277V15.5358C62.394 14.1253 61.8337 12.7726 60.8364 11.7753C59.8391 10.778 58.4864 10.2177 57.0759 10.2177H9.94561C8.53516 10.2177 7.18247 10.778 6.18513 11.7753C5.18779 12.7726 4.62749 14.1253 4.62749 15.5358V45.7067C4.63628 46.8772 5.03402 48.0115 5.75811 48.9311H5.3603C4.36865 49.0036 3.44116 49.4486 2.76419 50.1769C2.08722 50.9051 1.71094 51.8626 1.71094 52.8569C1.71094 53.8512 2.08722 54.8086 2.76419 55.5369C3.44116 56.2651 4.36865 56.7102 5.3603 56.7827H61.6403C62.632 56.7102 63.5594 56.2651 64.2364 55.5369C64.9134 54.8086 65.2897 53.8512 65.2897 52.8569C65.2897 51.8626 64.9134 50.9051 64.2364 50.1769C63.5594 49.4486 62.632 49.0036 61.6403 48.9311V48.952ZM6.72124 45.7067V15.5358C6.72124 14.6806 7.06095 13.8605 7.66563 13.2558C8.27032 12.6511 9.09045 12.3114 9.94561 12.3114H57.055C57.9101 12.3114 58.7303 12.6511 59.335 13.2558C59.9397 13.8605 60.2794 14.6806 60.2794 15.5358V45.7067C60.2794 46.5619 59.9397 47.382 59.335 47.9867C58.7303 48.5914 57.9101 48.9311 57.055 48.9311H9.94561C9.09045 48.9311 8.27032 48.5914 7.66563 47.9867C7.06095 47.382 6.72124 46.5619 6.72124 45.7067ZM61.6403 54.6889H5.3603C5.11925 54.6835 4.88168 54.6303 4.66135 54.5324C4.44102 54.4345 4.24232 54.2938 4.07677 54.1185C3.91123 53.9432 3.78212 53.7368 3.69695 53.5113C3.61178 53.2857 3.57224 53.0455 3.58061 52.8045C3.58605 52.3342 3.7753 51.8847 4.10788 51.5521C4.44047 51.2195 4.88998 51.0303 5.3603 51.0248H61.6403C61.8813 51.0302 62.1189 51.0834 62.3392 51.1813C62.5596 51.2793 62.7583 51.4199 62.9238 51.5952C63.0894 51.7705 63.2185 51.9769 63.3036 52.2025C63.3888 52.428 63.4284 52.6683 63.42 52.9092C63.42 53.3832 63.2332 53.838 62.9 54.1751C62.5669 54.5122 62.1142 54.7043 61.6403 54.7098V54.6889Z" fill="#4A4B4B"/>
<path d="M33.5 20.9375C31.4295 20.9375 29.4055 21.5515 27.6839 22.7018C25.9623 23.8521 24.6205 25.4871 23.8281 27.4C23.0358 29.3129 22.8285 31.4179 23.2324 33.4486C23.6363 35.4793 24.6334 37.3447 26.0975 38.8088C27.5616 40.2729 29.4269 41.2699 31.4577 41.6738C33.4884 42.0778 35.5933 41.8705 37.5062 41.0781C39.4191 40.2858 41.0541 38.944 42.2045 37.2224C43.3548 35.5008 43.9688 33.4768 43.9688 31.4062C43.9688 28.6298 42.8658 25.967 40.9025 24.0037C38.9393 22.0405 36.2765 20.9375 33.5 20.9375ZM41.6656 30.2547H39.3416C39.2645 28.1909 38.7582 26.1657 37.855 24.3084C38.9035 24.9665 39.7904 25.8521 40.45 26.8995C41.1097 27.947 41.5251 29.1295 41.6656 30.3594V30.2547ZM32.4531 23.4291V30.3594H29.7313C29.6948 29.0961 29.9176 27.8387 30.3857 26.6648C30.8538 25.4909 31.5574 24.4253 32.4531 23.5337V23.4291ZM32.4531 32.3484V39.1741C31.5574 38.2825 30.8538 37.2169 30.3857 36.043C29.9176 34.8691 29.6948 33.6117 29.7313 32.3484H32.4531ZM34.5469 39.1741V32.4531H37.2688C37.3052 33.7164 37.0824 34.9738 36.6143 36.1477C36.1462 37.3216 35.4426 38.3872 34.5469 39.2788V39.1741ZM34.5469 30.2547V23.5337C35.4426 24.4253 36.1462 25.4909 36.6143 26.6648C37.0824 27.8387 37.3052 29.0961 37.2688 30.3594L34.5469 30.2547ZM29.1241 24.3084C28.2209 26.1657 27.7146 28.1909 27.6375 30.2547H25.3344C25.502 29.0636 25.928 27.9235 26.5827 26.9145C27.2373 25.9054 28.1047 25.0517 29.1241 24.4131V24.3084ZM25.3344 32.4531H27.6584C27.7355 34.517 28.2418 36.5421 29.145 38.3994C28.1093 37.7521 27.2302 36.883 26.5712 35.8547C25.9122 34.8264 25.4898 33.6645 25.3344 32.4531ZM37.8969 38.3994C38.8001 36.5421 39.3064 34.517 39.3834 32.4531H41.6656C41.5126 33.6627 41.0934 34.8234 40.4381 35.8516C39.7828 36.8797 38.9078 37.7499 37.8759 38.3994H37.8969Z" fill="#4A4B4B"/>
</svg>
